<?xml version="1.0" encoding="iso-8859-1"?>
<!-- Generator: Adobe Illustrator 18.0.0, SVG Export Plug-In . SVG Version: 6.00 Build 0)  -->
<!DOCTYPE svg PUBLIC "-//W3C//DTD SVG 1.1//EN" "http://www.w3.org/Graphics/SVG/1.1/DTD/svg11.dtd">
<svg version="1.1" id="Capa_1" xmlns="http://www.w3.org/2000/svg" xmlns:xlink="http://www.w3.org/1999/xlink" x="0px" y="0px"
	 viewBox="0 0 372 372" style="enable-background:new 0 0 372 372;" xml:space="preserve">
<g>
	<path d="M233.159,149.696c23.901,0,43.347-19.445,43.347-43.346s-19.445-43.347-43.347-43.347s-43.346,19.445-43.346,43.347
		S209.257,149.696,233.159,149.696z M233.159,83.003c12.874,0,23.347,10.473,23.347,23.347c0,12.873-10.473,23.346-23.347,23.346
		c-12.873,0-23.346-10.473-23.346-23.346C209.813,93.477,220.286,83.003,233.159,83.003z"/>
	<path d="M186,0C83.439,0,0,83.439,0,186s83.439,186,186,186s186-83.439,186-186S288.561,0,186,0z M186,20
		c91.533,0,166,74.467,166,166c0,8.301-0.62,16.459-1.803,24.437c-7.47-2.262-14.492-5.886-20.811-10.805
		c-3.613-2.813-8.676-2.814-12.289,0.001c-11.405,8.884-25.098,13.581-39.601,13.581c-14.499,0-28.194-4.694-39.604-13.575
		c-3.612-2.812-8.672-2.812-12.284,0c-11.41,8.881-25.104,13.575-39.604,13.575c-14.503,0-28.202-4.697-39.613-13.582
		c-3.614-2.813-8.676-2.814-12.289,0.001c-11.405,8.884-25.098,13.581-39.6,13.581c-14.504,0-28.202-4.697-39.613-13.582
		c-3.613-2.813-8.676-2.814-12.289,0.001c-6.314,4.918-13.332,8.542-20.798,10.803C20.62,202.459,20,194.301,20,186
		C20,94.467,94.467,20,186,20z M305.991,300.594c-8.782,4.343-18.443,6.603-28.494,6.603c-14.499,0-28.193-4.694-39.604-13.575
		c-3.612-2.812-8.672-2.812-12.284,0c-11.41,8.881-25.105,13.575-39.604,13.575c-14.503,0-28.201-4.697-39.613-13.583
		c-3.614-2.814-8.676-2.813-12.289,0.001c-11.405,8.885-25.099,13.581-39.6,13.581c-10.047,0-19.706-2.258-28.488-6.597
		c-8.794-9.203-16.534-19.418-23.045-30.442c1.96-1.055,3.894-2.168,5.777-3.387c13.622,8.811,29.294,13.433,45.756,13.433
		c16.46,0,32.13-4.623,45.747-13.433c13.622,8.811,29.294,13.433,45.755,13.433c16.458,0,32.126-4.619,45.746-13.427
		c13.62,8.808,29.289,13.427,45.746,13.427c16.46,0,32.13-4.623,45.748-13.433c1.886,1.22,3.822,2.334,5.784,3.389
		C322.519,281.182,314.782,291.393,305.991,300.594z M329.387,246.623c-3.613-2.813-8.676-2.813-12.289,0.001
		c-11.405,8.884-25.098,13.581-39.601,13.581c-14.499,0-28.194-4.694-39.604-13.575c-3.612-2.812-8.672-2.812-12.284,0
		c-11.41,8.881-25.104,13.575-39.604,13.575c-14.503,0-28.202-4.697-39.613-13.582c-3.614-2.813-8.676-2.813-12.289,0.001
		c-11.405,8.884-25.098,13.581-39.6,13.581c-14.504,0-28.202-4.697-39.613-13.582c-3.612-2.813-8.676-2.813-12.289,0.001
		c-2.783,2.168-5.705,4.082-8.741,5.741c-3.148-7.188-5.801-14.64-7.916-22.313c8.037-2.252,15.703-5.679,22.803-10.272
		c13.622,8.811,29.294,13.433,45.756,13.433c16.46,0,32.13-4.623,45.747-13.433c13.622,8.811,29.294,13.433,45.755,13.433
		c16.458,0,32.126-4.619,45.746-13.427c13.62,8.808,29.289,13.427,45.746,13.427c16.46,0,32.131-4.623,45.748-13.433
		c7.103,4.594,14.771,8.021,22.811,10.273c-2.115,7.674-4.768,15.126-7.917,22.315C335.099,250.708,332.174,248.793,329.387,246.623
		z M98.634,327.087c14.946-0.709,29.144-5.253,41.616-13.324c13.622,8.812,29.295,13.434,45.755,13.434
		c16.457,0,32.125-4.619,45.746-13.427c12.475,8.067,26.671,12.608,41.615,13.317C247.973,342.869,218.035,352,186,352
		C153.965,352,124.027,342.869,98.634,327.087z"/>
</g>
<g>
</g>
<g>
</g>
<g>
</g>
<g>
</g>
<g>
</g>
<g>
</g>
<g>
</g>
<g>
</g>
<g>
</g>
<g>
</g>
<g>
</g>
<g>
</g>
<g>
</g>
<g>
</g>
<g>
</g>
</svg>
